<mxfile host="app.diagrams.net" modified="2024-04-05T15:04:17.450Z" agent="Mozilla/5.0 (Macintosh; Intel Mac OS X 10_15_7) AppleWebKit/537.36 (KHTML, like Gecko) Chrome/123.0.0.0 Safari/537.36" etag="RJxnrZu1WTSOs25iOJC-" version="24.2.2" type="github">
  <diagram name="Page-1" id="bPtIWhFYddLsmBvJcdnF">
    <mxGraphModel dx="1434" dy="786" grid="1" gridSize="10" guides="1" tooltips="1" connect="1" arrows="1" fold="1" page="1" pageScale="1" pageWidth="850" pageHeight="1100" math="0" shadow="0">
      <root>
        <mxCell id="0" />
        <mxCell id="1" parent="0" />
        <mxCell id="_A736EVSM7tlx8wgDM4y-5" style="edgeStyle=orthogonalEdgeStyle;rounded=0;orthogonalLoop=1;jettySize=auto;html=1;exitX=0.5;exitY=1;exitDx=0;exitDy=0;entryX=0.5;entryY=0;entryDx=0;entryDy=0;" edge="1" parent="1" source="_A736EVSM7tlx8wgDM4y-1" target="_A736EVSM7tlx8wgDM4y-4">
          <mxGeometry relative="1" as="geometry" />
        </mxCell>
        <mxCell id="_A736EVSM7tlx8wgDM4y-1" value="Начало" style="rounded=0;whiteSpace=wrap;html=1;" vertex="1" parent="1">
          <mxGeometry x="320" y="40" width="160" height="80" as="geometry" />
        </mxCell>
        <mxCell id="_A736EVSM7tlx8wgDM4y-3" style="edgeStyle=orthogonalEdgeStyle;rounded=0;orthogonalLoop=1;jettySize=auto;html=1;exitX=0.5;exitY=1;exitDx=0;exitDy=0;" edge="1" parent="1" source="_A736EVSM7tlx8wgDM4y-1" target="_A736EVSM7tlx8wgDM4y-1">
          <mxGeometry relative="1" as="geometry" />
        </mxCell>
        <mxCell id="_A736EVSM7tlx8wgDM4y-10" style="edgeStyle=orthogonalEdgeStyle;rounded=0;orthogonalLoop=1;jettySize=auto;html=1;exitX=1;exitY=0.5;exitDx=0;exitDy=0;entryX=0.5;entryY=0;entryDx=0;entryDy=0;" edge="1" parent="1" source="_A736EVSM7tlx8wgDM4y-4" target="_A736EVSM7tlx8wgDM4y-12">
          <mxGeometry relative="1" as="geometry">
            <mxPoint x="600" y="240" as="targetPoint" />
          </mxGeometry>
        </mxCell>
        <mxCell id="_A736EVSM7tlx8wgDM4y-11" value="Нет" style="edgeLabel;html=1;align=center;verticalAlign=middle;resizable=0;points=[];" vertex="1" connectable="0" parent="_A736EVSM7tlx8wgDM4y-10">
          <mxGeometry x="0.0625" y="2" relative="1" as="geometry">
            <mxPoint as="offset" />
          </mxGeometry>
        </mxCell>
        <mxCell id="_A736EVSM7tlx8wgDM4y-17" style="edgeStyle=orthogonalEdgeStyle;rounded=0;orthogonalLoop=1;jettySize=auto;html=1;exitX=0;exitY=0.5;exitDx=0;exitDy=0;entryX=0.5;entryY=0;entryDx=0;entryDy=0;" edge="1" parent="1" source="_A736EVSM7tlx8wgDM4y-4" target="_A736EVSM7tlx8wgDM4y-16">
          <mxGeometry relative="1" as="geometry" />
        </mxCell>
        <mxCell id="_A736EVSM7tlx8wgDM4y-4" value="Есть DMS в хипе?" style="rhombus;whiteSpace=wrap;html=1;" vertex="1" parent="1">
          <mxGeometry x="320" y="160" width="160" height="80" as="geometry" />
        </mxCell>
        <mxCell id="_A736EVSM7tlx8wgDM4y-6" value="Скрываем функционал и айдентику" style="rounded=0;whiteSpace=wrap;html=1;" vertex="1" parent="1">
          <mxGeometry x="280" y="680" width="160" height="80" as="geometry" />
        </mxCell>
        <mxCell id="_A736EVSM7tlx8wgDM4y-14" style="edgeStyle=orthogonalEdgeStyle;rounded=0;orthogonalLoop=1;jettySize=auto;html=1;exitX=0;exitY=0.5;exitDx=0;exitDy=0;entryX=0.5;entryY=0;entryDx=0;entryDy=0;" edge="1" parent="1" source="_A736EVSM7tlx8wgDM4y-12" target="_A736EVSM7tlx8wgDM4y-13">
          <mxGeometry relative="1" as="geometry" />
        </mxCell>
        <mxCell id="_A736EVSM7tlx8wgDM4y-15" value="Да" style="edgeLabel;html=1;align=center;verticalAlign=middle;resizable=0;points=[];" vertex="1" connectable="0" parent="_A736EVSM7tlx8wgDM4y-14">
          <mxGeometry x="-0.2667" relative="1" as="geometry">
            <mxPoint as="offset" />
          </mxGeometry>
        </mxCell>
        <mxCell id="_A736EVSM7tlx8wgDM4y-27" style="edgeStyle=orthogonalEdgeStyle;rounded=0;orthogonalLoop=1;jettySize=auto;html=1;exitX=1;exitY=0.5;exitDx=0;exitDy=0;entryX=0.5;entryY=0;entryDx=0;entryDy=0;" edge="1" parent="1" source="_A736EVSM7tlx8wgDM4y-12" target="_A736EVSM7tlx8wgDM4y-26">
          <mxGeometry relative="1" as="geometry" />
        </mxCell>
        <mxCell id="_A736EVSM7tlx8wgDM4y-28" value="Нет" style="edgeLabel;html=1;align=center;verticalAlign=middle;resizable=0;points=[];" vertex="1" connectable="0" parent="_A736EVSM7tlx8wgDM4y-27">
          <mxGeometry x="-0.25" y="4" relative="1" as="geometry">
            <mxPoint as="offset" />
          </mxGeometry>
        </mxCell>
        <mxCell id="_A736EVSM7tlx8wgDM4y-12" value="Залогинены?" style="rhombus;whiteSpace=wrap;html=1;" vertex="1" parent="1">
          <mxGeometry x="520" y="240" width="160" height="80" as="geometry" />
        </mxCell>
        <mxCell id="_A736EVSM7tlx8wgDM4y-22" style="edgeStyle=orthogonalEdgeStyle;rounded=0;orthogonalLoop=1;jettySize=auto;html=1;exitX=0;exitY=0.5;exitDx=0;exitDy=0;entryX=0.5;entryY=0;entryDx=0;entryDy=0;" edge="1" parent="1" source="_A736EVSM7tlx8wgDM4y-13" target="_A736EVSM7tlx8wgDM4y-6">
          <mxGeometry relative="1" as="geometry" />
        </mxCell>
        <mxCell id="_A736EVSM7tlx8wgDM4y-23" value="Да" style="edgeLabel;html=1;align=center;verticalAlign=middle;resizable=0;points=[];" vertex="1" connectable="0" parent="_A736EVSM7tlx8wgDM4y-22">
          <mxGeometry x="-0.4718" y="1" relative="1" as="geometry">
            <mxPoint as="offset" />
          </mxGeometry>
        </mxCell>
        <mxCell id="_A736EVSM7tlx8wgDM4y-24" style="edgeStyle=orthogonalEdgeStyle;rounded=0;orthogonalLoop=1;jettySize=auto;html=1;exitX=1;exitY=0.5;exitDx=0;exitDy=0;entryX=0.5;entryY=0;entryDx=0;entryDy=0;" edge="1" parent="1" source="_A736EVSM7tlx8wgDM4y-13" target="_A736EVSM7tlx8wgDM4y-21">
          <mxGeometry relative="1" as="geometry" />
        </mxCell>
        <mxCell id="_A736EVSM7tlx8wgDM4y-25" value="Нет" style="edgeLabel;html=1;align=center;verticalAlign=middle;resizable=0;points=[];" vertex="1" connectable="0" parent="_A736EVSM7tlx8wgDM4y-24">
          <mxGeometry x="-0.0513" relative="1" as="geometry">
            <mxPoint as="offset" />
          </mxGeometry>
        </mxCell>
        <mxCell id="_A736EVSM7tlx8wgDM4y-13" value="CAS в черном списке?" style="rhombus;whiteSpace=wrap;html=1;" vertex="1" parent="1">
          <mxGeometry x="420" y="390" width="160" height="80" as="geometry" />
        </mxCell>
        <mxCell id="_A736EVSM7tlx8wgDM4y-18" style="edgeStyle=orthogonalEdgeStyle;rounded=0;orthogonalLoop=1;jettySize=auto;html=1;exitX=0;exitY=0.5;exitDx=0;exitDy=0;entryX=0.25;entryY=0;entryDx=0;entryDy=0;" edge="1" parent="1" source="_A736EVSM7tlx8wgDM4y-16" target="_A736EVSM7tlx8wgDM4y-6">
          <mxGeometry relative="1" as="geometry">
            <mxPoint x="60" y="480" as="targetPoint" />
            <Array as="points">
              <mxPoint x="100" y="280" />
              <mxPoint x="100" y="560" />
              <mxPoint x="320" y="560" />
            </Array>
          </mxGeometry>
        </mxCell>
        <mxCell id="_A736EVSM7tlx8wgDM4y-19" value="Да" style="edgeLabel;html=1;align=center;verticalAlign=middle;resizable=0;points=[];" vertex="1" connectable="0" parent="_A736EVSM7tlx8wgDM4y-18">
          <mxGeometry x="-0.6182" y="-1" relative="1" as="geometry">
            <mxPoint as="offset" />
          </mxGeometry>
        </mxCell>
        <mxCell id="_A736EVSM7tlx8wgDM4y-20" style="edgeStyle=orthogonalEdgeStyle;rounded=0;orthogonalLoop=1;jettySize=auto;html=1;exitX=1;exitY=0.5;exitDx=0;exitDy=0;entryX=0.25;entryY=0;entryDx=0;entryDy=0;" edge="1" parent="1" source="_A736EVSM7tlx8wgDM4y-16" target="_A736EVSM7tlx8wgDM4y-21">
          <mxGeometry relative="1" as="geometry">
            <mxPoint x="340" y="550" as="targetPoint" />
            <Array as="points">
              <mxPoint x="280" y="520" />
              <mxPoint x="560" y="520" />
            </Array>
          </mxGeometry>
        </mxCell>
        <mxCell id="_A736EVSM7tlx8wgDM4y-16" value="DMS включен?" style="rhombus;whiteSpace=wrap;html=1;" vertex="1" parent="1">
          <mxGeometry x="120" y="240" width="160" height="80" as="geometry" />
        </mxCell>
        <mxCell id="_A736EVSM7tlx8wgDM4y-21" value="Показываем функционал и айдентику" style="rounded=0;whiteSpace=wrap;html=1;" vertex="1" parent="1">
          <mxGeometry x="520" y="680" width="160" height="80" as="geometry" />
        </mxCell>
        <mxCell id="_A736EVSM7tlx8wgDM4y-29" style="edgeStyle=orthogonalEdgeStyle;rounded=0;orthogonalLoop=1;jettySize=auto;html=1;exitX=0;exitY=0.5;exitDx=0;exitDy=0;entryX=0.75;entryY=0;entryDx=0;entryDy=0;" edge="1" parent="1" source="_A736EVSM7tlx8wgDM4y-26" target="_A736EVSM7tlx8wgDM4y-6">
          <mxGeometry relative="1" as="geometry">
            <Array as="points">
              <mxPoint x="620" y="400" />
              <mxPoint x="620" y="560" />
              <mxPoint x="400" y="560" />
            </Array>
          </mxGeometry>
        </mxCell>
        <mxCell id="_A736EVSM7tlx8wgDM4y-30" value="Да" style="edgeLabel;html=1;align=center;verticalAlign=middle;resizable=0;points=[];" vertex="1" connectable="0" parent="_A736EVSM7tlx8wgDM4y-29">
          <mxGeometry x="-0.8618" y="-1" relative="1" as="geometry">
            <mxPoint as="offset" />
          </mxGeometry>
        </mxCell>
        <mxCell id="_A736EVSM7tlx8wgDM4y-31" style="edgeStyle=orthogonalEdgeStyle;rounded=0;orthogonalLoop=1;jettySize=auto;html=1;exitX=1;exitY=0.5;exitDx=0;exitDy=0;entryX=0.75;entryY=0;entryDx=0;entryDy=0;" edge="1" parent="1" source="_A736EVSM7tlx8wgDM4y-26" target="_A736EVSM7tlx8wgDM4y-21">
          <mxGeometry relative="1" as="geometry" />
        </mxCell>
        <mxCell id="_A736EVSM7tlx8wgDM4y-32" value="Нет" style="edgeLabel;html=1;align=center;verticalAlign=middle;resizable=0;points=[];" vertex="1" connectable="0" parent="_A736EVSM7tlx8wgDM4y-31">
          <mxGeometry x="-0.3676" y="1" relative="1" as="geometry">
            <mxPoint as="offset" />
          </mxGeometry>
        </mxCell>
        <mxCell id="_A736EVSM7tlx8wgDM4y-26" value="/marketing возвращает false?" style="rhombus;whiteSpace=wrap;html=1;" vertex="1" parent="1">
          <mxGeometry x="680" y="360" width="160" height="80" as="geometry" />
        </mxCell>
      </root>
    </mxGraphModel>
  </diagram>
</mxfile>
